HIERARCHY
ROOT Hips
{
	OFFSET 0.000000 89.005402 0.000000
	CHANNELS 6 Xposition Yposition Zposition Xrotation Yrotation Zrotation
	JOINT Spine
	{
		OFFSET 0.116900 10.681000 0.373400
		CHANNELS 3 Xrotation Yrotation Zrotation
		JOINT Spine1
		{
			OFFSET 0.000000 13.840401 0.053500
			CHANNELS 3 Xrotation Yrotation Zrotation
			JOINT Spine2
			{
				OFFSET 0.000000 14.712700 -0.366200
				CHANNELS 3 Xrotation Yrotation Zrotation
				JOINT Neck
				{
					OFFSET 0.000000 35.415497 -3.314200
					CHANNELS 3 Xrotation Yrotation Zrotation
					JOINT Head
					{
						OFFSET 0.000000 16.899200 1.218300
						CHANNELS 3 Xrotation Yrotation Zrotation
						JOINT HeadTop_End
						{
							OFFSET 0.000000 22.206207 2.192500
							CHANNELS 3 Xrotation Yrotation Zrotation
							End Site
							{
								OFFSET 0.000000 22.314178 0.000000
							}
						}
					}
				}
				JOINT LeftShoulder
				{
					OFFSET 12.896400 26.716293 -4.548400
					CHANNELS 3 Xrotation Yrotation Zrotation
					JOINT LeftArm
					{
						OFFSET 19.027000 -4.857010 -1.718400
						CHANNELS 3 Xrotation Yrotation Zrotation
						JOINT LeftForeArm
						{
							OFFSET 24.179897 0.000000 0.000000
							CHANNELS 3 Xrotation Yrotation Zrotation
							JOINT LeftHand
							{
								OFFSET 27.156403 0.000000 0.000000
								CHANNELS 3 Xrotation Yrotation Zrotation
								JOINT LeftHandIndex1
								{
									OFFSET 16.441200 0.000000 0.000000
									CHANNELS 3 Xrotation Yrotation Zrotation
									JOINT LeftHandIndex2
									{
										OFFSET 4.821899 0.000000 0.000000
										CHANNELS 3 Xrotation Yrotation Zrotation
										JOINT LeftHandIndex3
										{
											OFFSET 6.386497 0.000000 0.000000
											CHANNELS 3 Xrotation Yrotation Zrotation
											JOINT LeftHandIndex4
											{
												OFFSET 5.188988 0.000000 0.000000
												CHANNELS 3 Xrotation Yrotation Zrotation
												End Site
												{
													OFFSET -0.178703 5.185913 0.000177
												}
											}
										}
									}
								}
								JOINT LeftHandThumb1
								{
									OFFSET 6.534897 -5.032593 5.900300
									CHANNELS 3 Xrotation Yrotation Zrotation
									JOINT LeftHandThumb2
									{
										OFFSET 3.818176 -2.204422 2.204423
										CHANNELS 3 Xrotation Yrotation Zrotation
										JOINT LeftHandThumb3
										{
											OFFSET 3.252098 -1.877594 1.877601
											CHANNELS 3 Xrotation Yrotation Zrotation
											JOINT LeftHandThumb4
											{
												OFFSET 5.251778 -3.032120 3.032117
												CHANNELS 3 Xrotation Yrotation Zrotation
												End Site
												{
													OFFSET 0.000023 6.780014 0.000000
												}
											}
										}
									}
								}
							}
						}
					}
				}
				JOINT RightShoulder
				{
					OFFSET -12.896300 26.716293 -4.548400
					CHANNELS 3 Xrotation Yrotation Zrotation
					JOINT RightArm
					{
						OFFSET -19.027000 -4.857010 -1.718400
						CHANNELS 3 Xrotation Yrotation Zrotation
						JOINT RightForeArm
						{
							OFFSET -24.179897 0.000000 0.000000
							CHANNELS 3 Xrotation Yrotation Zrotation
							JOINT RightHand
							{
								OFFSET -27.156403 0.000000 0.000000
								CHANNELS 3 Xrotation Yrotation Zrotation
								JOINT RightHandThumb1
								{
									OFFSET -6.591202 -4.852203 5.988100
									CHANNELS 3 Xrotation Yrotation Zrotation
									JOINT RightHandThumb2
									{
										OFFSET -3.818176 -2.204422 2.204423
										CHANNELS 3 Xrotation Yrotation Zrotation
										JOINT RightHandThumb3
										{
											OFFSET -3.252098 -1.877594 1.877601
											CHANNELS 3 Xrotation Yrotation Zrotation
											JOINT RightHandThumb4
											{
												OFFSET -5.251778 -3.032120 3.032117
												CHANNELS 3 Xrotation Yrotation Zrotation
												End Site
												{
													OFFSET -0.000023 6.780014 0.000000
												}
											}
										}
									}
								}
								JOINT RightHandIndex1
								{
									OFFSET -16.029404 0.000000 0.000000
									CHANNELS 3 Xrotation Yrotation Zrotation
									JOINT RightHandIndex2
									{
										OFFSET -5.213303 0.000000 0.000000
										CHANNELS 3 Xrotation Yrotation Zrotation
										JOINT RightHandIndex3
										{
											OFFSET -6.386528 0.000000 0.000000
											CHANNELS 3 Xrotation Yrotation Zrotation
											JOINT RightHandIndex4
											{
												OFFSET -5.189026 0.000000 0.000000
												CHANNELS 3 Xrotation Yrotation Zrotation
												End Site
												{
													OFFSET 0.236702 5.183624 0.001972
												}
											}
										}
									}
								}
							}
						}
					}
				}
			}
		}
	}
	JOINT LeftUpLeg
	{
		OFFSET 14.073000 -7.904099 -1.463000
		CHANNELS 3 Xrotation Yrotation Zrotation
		JOINT LeftLeg
		{
			OFFSET -0.109806 -34.073280 4.093200
			CHANNELS 3 Xrotation Yrotation Zrotation
			JOINT LeftFoot
			{
				OFFSET 0.109806 -29.899420 -6.319000
				CHANNELS 3 Xrotation Yrotation Zrotation
				JOINT LeftToeBase
				{
					OFFSET 1.551100 -14.988700 20.535801
					CHANNELS 3 Xrotation Yrotation Zrotation
					JOINT LeftToe_End
					{
						OFFSET 0.221200 0.570800 13.248301
						CHANNELS 3 Xrotation Yrotation Zrotation
						End Site
						{
							OFFSET 0.000000 13.262435 0.000000
						}
					}
				}
			}
		}
	}
	JOINT RightUpLeg
	{
		OFFSET -13.839300 -7.904099 -1.463000
		CHANNELS 3 Xrotation Yrotation Zrotation
		JOINT RightLeg
		{
			OFFSET 0.109694 -34.073219 4.093300
			CHANNELS 3 Xrotation Yrotation Zrotation
			JOINT RightFoot
			{
				OFFSET -0.109694 -29.899384 -6.319200
				CHANNELS 3 Xrotation Yrotation Zrotation
				JOINT RightToeBase
				{
					OFFSET -1.551100 -14.988700 20.535801
					CHANNELS 3 Xrotation Yrotation Zrotation
					JOINT RightToe_End
					{
						OFFSET -0.221200 0.570900 13.248299
						CHANNELS 3 Xrotation Yrotation Zrotation
						End Site
						{
							OFFSET 0.000000 13.262440 0.000000
						}
					}
				}
			}
		}
	}
}
MOTION
Frames: 6
Frame Time: 0.033333
-2.728692 60.141563 100.614426 75.936445 -6.691040 0.859690 2.320787 10.099252 -8.710947 -1.567288 1.620751 4.466929 -1.710310 1.575726 4.430833 -9.880309 -2.534662 0.208160 -7.130921 -18.611258 -3.063812 -0.000002 0.000000 0.000000 0.684870 -4.336247 3.187603 -41.499304 -29.179347 -23.011860 -0.000034 -113.909824 -0.000040 68.073169 6.987425 15.721207 0.367365 3.652281 -1.113395 0.000011 0.002643 -0.021944 0.000035 0.020721 -0.171683 0.000002 0.000004 -0.000002 -4.777944 2.053238 8.257480 7.142552 24.278247 -5.110051 -2.998663 -8.165335 4.335369 -0.000002 0.000001 0.000000 0.460252 -10.756254 -7.755506 -36.088554 16.457718 17.484231 0.000034 119.402676 -0.000030 38.805378 -3.222503 -25.519506 -4.293264 -2.454055 3.735818 14.990454 -32.665878 2.285608 1.607485 -7.521055 -2.297638 -0.000000 -0.000000 -0.000000 1.749118 -5.284309 23.695702 0.009157 -0.357449 2.934308 0.000562 -0.088928 0.729750 -0.000000 -0.000001 -0.000002 -50.855376 -4.171441 36.489271 104.570708 -2.736092 -6.681062 -2.997372 12.161376 13.666661 0.124129 0.000005 -0.000014 0.000000 0.000000 0.000001 -52.973154 -2.086356 -29.067810 100.320289 3.493924 -6.072569 14.363912 1.238718 25.916118 0.000004 0.000002 0.000003 0.000004 0.000001 0.000002 
-2.983607 60.525162 102.038910 76.234275 -6.917163 0.763192 1.946858 10.183791 -8.427627 -1.647609 1.621474 4.406924 -1.789515 1.579305 4.369308 -9.867571 -2.497907 0.155061 -7.095997 -18.353977 -3.124765 0.000002 0.000000 -0.000001 0.579583 -3.414172 3.539206 -44.350375 -30.001060 -21.854355 -0.000022 -110.600987 -0.000010 67.965915 7.767658 14.316368 0.126094 2.891635 1.435647 -0.000001 0.002602 -0.021636 0.000037 0.024900 -0.206290 0.000000 0.000001 -0.000001 -5.233676 1.398838 7.517748 6.194734 21.923683 -4.642228 -2.968059 -8.135306 4.344840 0.000002 0.000001 0.000000 0.210455 -11.312172 -9.210187 -39.501607 16.499157 17.891134 -0.000003 116.674603 -0.000007 37.767473 -4.681884 -22.668378 -5.871117 0.092716 2.625425 12.349030 -27.324809 1.498222 1.401255 -6.983675 -2.283532 -0.000001 0.000001 -0.000000 1.595997 -5.160139 22.000232 0.010578 -0.384223 3.154478 0.000373 -0.071799 0.589255 -0.000001 -0.000002 0.000001 -49.055146 -5.118715 37.319573 103.128780 -2.402553 -6.780011 -2.637558 14.879212 14.697575 0.226136 0.000009 -0.000003 -0.000000 0.000000 -0.000000 -51.889357 0.950226 -30.855967 99.570020 3.769055 -6.066990 14.671291 1.238123 25.802621 0.000002 0.000004 -0.000003 0.000002 0.000003 -0.000001 
-3.198719 60.841667 103.406265 76.473544 -7.224883 0.758555 1.581847 10.204607 -8.256578 -1.689522 1.613973 4.369071 -1.830444 1.574884 4.331053 -9.765066 -2.469539 0.113846 -6.962126 -18.157216 -3.145735 0.000003 -0.000000 -0.000001 0.484674 -2.614134 3.728226 -46.869410 -30.520311 -20.660378 -0.000052 -107.553391 -0.000041 67.518189 8.616753 11.761374 -0.016665 2.016250 2.713049 -0.000011 0.002568 -0.021284 0.000048 0.024047 -0.199280 -0.000002 -0.000002 0.000000 -5.848767 0.539098 6.851654 5.117265 19.056684 -4.168206 -3.005020 -8.430129 4.411904 -0.000001 -0.000004 0.000002 -0.028697 -11.828171 -10.709393 -42.414751 16.396412 18.361299 -0.000041 113.883822 0.000024 36.734728 -6.313131 -19.992360 -7.193028 2.621209 1.066101 10.332852 -22.861277 0.871193 1.256907 -6.610758 -2.269374 0.000001 -0.000000 0.000000 1.415089 -4.969509 20.214291 0.012401 -0.415979 3.415560 0.000173 -0.049434 0.405604 0.000000 0.000002 0.000001 -46.974226 -6.013803 38.317365 101.522962 -2.245373 -6.870744 -2.059541 16.580013 14.888901 0.341091 0.000000 -0.000001 -0.000000 0.000001 -0.000000 -50.751191 3.672682 -32.712464 98.343099 4.178283 -6.075396 15.556587 1.361100 25.596221 -0.000000 0.000001 -0.000001 -0.000000 -0.000001 0.000000 
-3.364088 61.089832 104.718323 76.634968 -7.537606 0.802476 1.264248 10.182082 -8.216911 -1.747059 1.600569 4.374860 -1.887843 1.563717 4.336002 -9.596154 -2.460625 0.098694 -6.785278 -18.057126 -3.161559 -0.000000 0.000001 -0.000000 0.409432 -1.991402 3.822263 -48.838042 -31.036038 -19.350746 -0.000016 -104.329056 -0.000017 66.708033 9.293390 9.229017 -0.032977 1.791502 2.519912 -0.000004 0.002512 -0.020831 0.000033 0.024231 -0.200743 -0.000002 0.000001 -0.000000 -6.600302 -0.499967 6.355792 4.393912 16.818480 -3.732275 -3.156482 -9.262633 4.570790 -0.000001 0.000001 0.000002 -0.246671 -12.469814 -11.710055 -44.986658 16.853902 18.587352 -0.000031 110.677772 0.000037 34.806955 -8.004976 -17.381453 -8.162544 5.145669 -1.059496 9.111145 -19.927874 0.461252 1.068918 -6.108924 -2.267173 0.000001 0.000000 0.000000 1.232424 -4.748787 18.419719 0.014360 -0.447537 3.674895 0.000053 -0.026666 0.218765 -0.000000 -0.000003 0.000002 -44.845222 -6.594057 39.305871 99.762467 -2.079176 -6.867199 -1.237288 17.812725 14.786945 0.479372 -0.000020 -0.000005 -0.000003 0.000002 0.000002 -49.348960 5.654663 -34.532187 96.512950 4.586563 -6.142196 16.727144 1.572804 25.577737 -0.000001 0.000001 -0.000002 -0.000001 0.000001 0.000001 
-3.471242 61.302750 106.008423 76.748650 -7.809731 0.814649 0.927224 10.190647 -8.059522 -1.801372 1.592502 4.357498 -1.941384 1.558216 4.317881 -9.381670 -2.477433 0.118419 -6.679710 -18.046625 -3.239697 0.000000 0.000000 -0.000001 0.353945 -1.538608 3.886524 -50.305959 -31.594017 -18.092835 -0.000137 -100.862715 -0.000134 65.665719 9.765184 7.173496 0.016748 1.985952 1.260787 -0.000011 0.002449 -0.020334 0.000036 0.024886 -0.206104 -0.000002 0.000003 -0.000003 -7.493918 -1.732544 5.933233 4.216782 15.715473 -3.224357 -3.332143 -10.229196 4.751095 -0.000001 0.000001 0.000000 -0.482420 -13.120844 -12.935547 -46.945970 17.120646 18.843524 0.000011 107.331116 -0.000009 32.557200 -9.941760 -14.688781 -8.623646 7.722314 -4.252715 8.579002 -18.583374 0.269974 0.793692 -5.363491 -2.271030 -0.000001 0.000000 -0.000000 1.008655 -4.446975 15.985867 0.017894 -0.499593 4.103039 0.000007 -0.006662 0.054684 0.000001 -0.000002 0.000001 -42.716758 -6.797193 40.226023 97.879964 -1.881405 -6.759352 -0.398861 18.718811 14.456632 0.621639 0.000009 0.000010 -0.000001 0.000003 0.000001 -47.807161 6.849721 -36.101959 94.247964 4.893477 -6.257616 17.850998 1.791247 25.647079 0.000001 -0.000002 0.000001 -0.000001 -0.000003 0.000001 
-3.559688 61.499916 107.271217 76.791701 -8.015948 0.803060 0.585680 10.248559 -7.775447 -1.833705 1.589766 4.297254 -1.971981 1.560633 4.257346 -9.127049 -2.512643 0.167728 -6.409350 -18.100327 -3.214432 -0.000000 -0.000000 0.000000 0.315422 -1.236627 3.975556 -51.182651 -32.143598 -16.753754 -0.000136 -97.281817 -0.000137 64.208286 10.122776 5.856568 0.065856 2.243686 0.526335 -0.000000 0.002377 -0.019756 0.000041 0.025542 -0.211613 -0.000005 0.000002 -0.000003 -8.208696 -2.648109 5.430133 4.117318 15.053442 -2.903603 -3.573318 -11.561838 4.992845 -0.000000 -0.000000 0.000002 -0.728421 -13.695511 -14.418992 -48.418385 16.923701 19.248110 -0.000062 103.730472 0.000053 29.777784 -11.621056 -12.336817 -8.064423 9.628399 -9.318052 8.492696 -18.333898 0.223570 0.420563 -4.338282 -2.282942 -0.000001 0.000001 -0.000000 0.631054 -3.566400 12.794519 0.020900 -0.539753 4.433724 -0.000004 0.000490 -0.004097 0.000001 0.000001 0.000000 -40.601045 -6.273212 41.051284 95.627389 -1.696558 -6.453905 0.266151 19.222946 13.912465 0.768384 0.000021 0.000010 -0.000000 0.000004 -0.000003 -46.262029 7.246201 -37.363696 91.633265 5.224495 -6.412956 19.041275 2.039742 25.712783 -0.000002 0.000000 0.000001 -0.000002 0.000000 0.000001 
